{
    "asset" : {
        "generator" : "Khronos glTF Blender I/O v1.1.46",
        "version" : "2.0"
    },
    "scene" : 0,
    "scenes" : [
        {
            "name" : "Scene",
            "nodes" : [
                0,
                16
            ]
        }
    ],
    "nodes" : [
        {
            "mesh" : 0,
            "name" : "Cylinder"
        },
        {
            "name" : "Bone.011",
            "rotation" : [
                0.05409484729170799,
                -0.10168211162090302,
                -0.09429718554019928,
                0.988859236240387
            ],
            "scale" : [
                0.9999999403953552,
                0.9999998211860657,
                0.9999998807907104
            ],
            "translation" : [
                6.984919309616089e-09,
                0.34280622005462646,
                -6.170012056827545e-09
            ]
        },
        {
            "children" : [
                1
            ],
            "name" : "Bone.010",
            "rotation" : [
                0.0012535940622910857,
                1.7005668269121088e-05,
                0.0007089549908414483,
                0.9999989867210388
            ],
            "scale" : [
                1,
                0.9999998807907104,
                0.9999999403953552
            ],
            "translation" : [
                9.313225746154785e-09,
                0.321620374917984,
                5.893525667488575e-09
            ]
        },
        {
            "children" : [
                2
            ],
            "name" : "Bone.002",
            "rotation" : [
                -0.20765751600265503,
                0.14102065563201904,
                0.035249073058366776,
                0.9673412442207336
            ],
            "scale" : [
                1,
                0.9999999403953552,
                1
            ],
            "translation" : [
                0.027501171454787254,
                2.864586114883423,
                0.6351702213287354
            ]
        },
        {
            "name" : "Bone.007",
            "rotation" : [
                -3.2859519706107676e-05,
                8.9026697125405e-09,
                0.010671943426132202,
                0.9999430775642395
            ],
            "scale" : [
                0.9999998807907104,
                0.9999998807907104,
                1
            ],
            "translation" : [
                4.866160452365875e-08,
                0.26884564757347107,
                1.30385160446167e-08
            ]
        },
        {
            "children" : [
                4
            ],
            "name" : "Bone.006",
            "rotation" : [
                0.05100657045841217,
                0.006832498125731945,
                0.0525476448237896,
                0.997291624546051
            ],
            "scale" : [
                1.0000001192092896,
                0.9999999403953552,
                1
            ],
            "translation" : [
                -2.3981556296348572e-08,
                0.26679518818855286,
                3.725290298461914e-09
            ]
        },
        {
            "children" : [
                5
            ],
            "name" : "Bone.003",
            "rotation" : [
                -0.20153450965881348,
                -0.04515433311462402,
                -0.12078852951526642,
                0.9709557890892029
            ],
            "scale" : [
                0.9999999403953552,
                0.9999998807907104,
                1
            ],
            "translation" : [
                0.34247562289237976,
                2.880293607711792,
                0.6663334965705872
            ]
        },
        {
            "name" : "Bone.009",
            "rotation" : [
                0.05342937260866165,
                -0.0814412385225296,
                -0.06738236546516418,
                0.9929613471031189
            ],
            "scale" : [
                1,
                0.9999999403953552,
                0.9999998807907104
            ],
            "translation" : [
                1.862645149230957e-09,
                0.15327875316143036,
                7.450580596923828e-09
            ]
        },
        {
            "children" : [
                7
            ],
            "name" : "Bone.008",
            "rotation" : [
                -0.04137883707880974,
                0.001360577647574246,
                0.011463332921266556,
                0.9990769028663635
            ],
            "scale" : [
                0.9999999403953552,
                0.9999999403953552,
                0.9999999403953552
            ],
            "translation" : [
                -5.448237061500549e-08,
                0.20574377477169037,
                1.30385160446167e-08
            ]
        },
        {
            "children" : [
                8
            ],
            "name" : "Bone.004",
            "rotation" : [
                -0.06516865640878677,
                0.23003605008125305,
                -0.2584986388683319,
                0.9359567165374756
            ],
            "scale" : [
                1.0000001192092896,
                1,
                1
            ],
            "translation" : [
                0.6312227249145508,
                2.8112175464630127,
                0.5099059343338013
            ]
        },
        {
            "name" : "Bone.001",
            "rotation" : [
                0.041156940162181854,
                -0.3403753340244293,
                -0.1815483123064041,
                0.9216783046722412
            ],
            "translation" : [
                6.356276571750641e-08,
                0.35294482111930847,
                3.725290298461914e-09
            ]
        },
        {
            "children" : [
                10
            ],
            "name" : "Bone",
            "rotation" : [
                0.003526507643982768,
                0.019988147541880608,
                0.45896628499031067,
                0.888221800327301
            ],
            "translation" : [
                -0.4481237232685089,
                2.023959159851074,
                0.0710674449801445
            ]
        },
        {
            "name" : "Bone.013",
            "rotation" : [
                -0.00015055545372888446,
                -1.5600118530301188e-08,
                -0.00771890114992857,
                0.9999701976776123
            ],
            "scale" : [
                1,
                0.9999999403953552,
                1
            ],
            "translation" : [
                -1.955777406692505e-08,
                0.26939302682876587,
                5.587935447692871e-09
            ]
        },
        {
            "children" : [
                12
            ],
            "name" : "Bone.012",
            "rotation" : [
                -0.022059239447116852,
                -0.000659950717817992,
                -0.040401142090559006,
                0.9989398121833801
            ],
            "scale" : [
                1,
                1,
                0.9999998807907104
            ],
            "translation" : [
                -2.584420144557953e-08,
                0.29539310932159424,
                -7.450580596923828e-09
            ]
        },
        {
            "children" : [
                13
            ],
            "name" : "Bone.005",
            "rotation" : [
                -0.20766040682792664,
                0.1337069422006607,
                0.14155294001102448,
                0.9586253762245178
            ],
            "scale" : [
                0.9999998807907104,
                0.9999998807907104,
                0.9999998807907104
            ],
            "translation" : [
                -0.31186696887016296,
                2.906460762023926,
                0.7838801741600037
            ]
        },
        {
            "mesh" : 1,
            "name" : "Cube",
            "skin" : 0
        },
        {
            "children" : [
                15,
                3,
                6,
                9,
                11,
                14
            ],
            "name" : "Armature"
        }
    ],
    "materials" : [
        {
            "doubleSided" : true,
            "emissiveFactor" : [
                0,
                0,
                0
            ],
            "name" : "Material.002",
            "pbrMetallicRoughness" : {
                "baseColorTexture" : {
                    "index" : 0,
                    "texCoord" : 0
                },
                "metallicFactor" : 0,
                "roughnessFactor" : 0.5
            }
        },
        {
            "doubleSided" : true,
            "emissiveFactor" : [
                0,
                0,
                0
            ],
            "name" : "Material",
            "pbrMetallicRoughness" : {
                "baseColorTexture" : {
                    "index" : 1,
                    "texCoord" : 0
                },
                "metallicFactor" : 0,
                "roughnessFactor" : 0.5
            }
        }
    ],
    "meshes" : [
        {
            "name" : "Cylinder.001",
            "primitives" : [
                {
                    "attributes" : {
                        "POSITION" : 0,
                        "NORMAL" : 1,
                        "TEXCOORD_0" : 2
                    },
                    "indices" : 3,
                    "material" : 0
                }
            ]
        },
        {
            "name" : "Cube.001",
            "primitives" : [
                {
                    "attributes" : {
                        "POSITION" : 4,
                        "NORMAL" : 5,
                        "TEXCOORD_0" : 6,
                        "JOINTS_0" : 7,
                        "WEIGHTS_0" : 8
                    },
                    "indices" : 9,
                    "material" : 1
                }
            ]
        }
    ],
    "textures" : [
        {
            "source" : 0
        },
        {
            "source" : 1
        }
    ],
    "images" : [
        {
            "bufferView" : 4,
            "mimeType" : "image/png",
            "name" : "clock"
        },
        {
            "bufferView" : 11,
            "mimeType" : "image/png",
            "name" : "Untitled"
        }
    ],
    "skins" : [
        {
            "inverseBindMatrices" : 10,
            "joints" : [
                3,
                2,
                1,
                6,
                5,
                4,
                9,
                8,
                7,
                11,
                10,
                14,
                13,
                12
            ],
            "name" : "Armature"
        }
    ],
    "accessors" : [
        {
            "bufferView" : 0,
            "componentType" : 5126,
            "count" : 1464,
            "max" : [
                0.8770075440406799,
                2.8558597564697266,
                0.08345317840576172
            ],
            "min" : [
                -0.9404028654098511,
                2.477182626724243,
                -1.7355718612670898
            ],
            "type" : "VEC3"
        },
        {
            "bufferView" : 1,
            "componentType" : 5126,
            "count" : 1464,
            "type" : "VEC3"
        },
        {
            "bufferView" : 2,
            "componentType" : 5126,
            "count" : 1464,
            "type" : "VEC2"
        },
        {
            "bufferView" : 3,
            "componentType" : 5123,
            "count" : 2400,
            "type" : "SCALAR"
        },
        {
            "bufferView" : 5,
            "componentType" : 5126,
            "count" : 520,
            "max" : [
                0.8406475782394409,
                3.9692325592041016,
                0.6088091731071472
            ],
            "min" : [
                -1.2258166074752808,
                0.5740580558776855,
                -0.2027645856142044
            ],
            "type" : "VEC3"
        },
        {
            "bufferView" : 6,
            "componentType" : 5126,
            "count" : 520,
            "type" : "VEC3"
        },
        {
            "bufferView" : 7,
            "componentType" : 5126,
            "count" : 520,
            "type" : "VEC2"
        },
        {
            "bufferView" : 8,
            "componentType" : 5123,
            "count" : 520,
            "type" : "VEC4"
        },
        {
            "bufferView" : 9,
            "componentType" : 5126,
            "count" : 520,
            "type" : "VEC4"
        },
        {
            "bufferView" : 10,
            "componentType" : 5123,
            "count" : 780,
            "type" : "SCALAR"
        },
        {
            "bufferView" : 12,
            "componentType" : 5126,
            "count" : 14,
            "type" : "MAT4"
        }
    ],
    "bufferViews" : [
        {
            "buffer" : 0,
            "byteLength" : 17568,
            "byteOffset" : 0
        },
        {
            "buffer" : 0,
            "byteLength" : 17568,
            "byteOffset" : 17568
        },
        {
            "buffer" : 0,
            "byteLength" : 11712,
            "byteOffset" : 35136
        },
        {
            "buffer" : 0,
            "byteLength" : 4800,
            "byteOffset" : 46848
        },
        {
            "buffer" : 0,
            "byteLength" : 71845,
            "byteOffset" : 51648
        },
        {
            "buffer" : 0,
            "byteLength" : 6240,
            "byteOffset" : 123496
        },
        {
            "buffer" : 0,
            "byteLength" : 6240,
            "byteOffset" : 129736
        },
        {
            "buffer" : 0,
            "byteLength" : 4160,
            "byteOffset" : 135976
        },
        {
            "buffer" : 0,
            "byteLength" : 4160,
            "byteOffset" : 140136
        },
        {
            "buffer" : 0,
            "byteLength" : 8320,
            "byteOffset" : 144296
        },
        {
            "buffer" : 0,
            "byteLength" : 1560,
            "byteOffset" : 152616
        },
        {
            "buffer" : 0,
            "byteLength" : 422995,
            "byteOffset" : 154176
        },
        {
            "buffer" : 0,
            "byteLength" : 896,
            "byteOffset" : 577172
        }
    ],
    "buffers" : [
        {
            "byteLength" : 578068,
            "uri" : "data:application/octet-stream;base64,"
        }
    ]
}
