{
    "asset" : {
        "generator" : "Khronos glTF Blender I/O v1.1.46",
        "version" : "2.0"
    },
    "scene" : 0,
    "scenes" : [
        {
            "name" : "Scene",
            "nodes" : [
                0,
                1,
                2,
                3,
                4
            ]
        }
    ],
    "nodes" : [
        {
            "mesh" : 0,
            "name" : "plate",
            "scale" : [
                0.48443204164505005,
                0.48443204164505005,
                0.48443204164505005
            ],
            "translation" : [
                -0.012446045875549316,
                0.2619103193283081,
                0.323964923620224
            ]
        },
        {
            "mesh" : 1,
            "name" : "Plane",
            "scale" : [
                -1.2661614418029785,
                -2.213927745819092,
                0.5688298940658569
            ],
            "translation" : [
                -0.025400280952453613,
                0.16084811091423035,
                0.19086524844169617
            ]
        },
        {
            "mesh" : 2,
            "name" : "fork",
            "rotation" : [
                0,
                -0.018430592492222786,
                0,
                0.9998301267623901
            ],
            "scale" : [
                -0.014205416664481163,
                0.011615902185440063,
                0.3866572976112366
            ],
            "translation" : [
                1.0782082080841064,
                0.19859164953231812,
                0.19713184237480164
            ]
        },
        {
            "mesh" : 3,
            "name" : "cup",
            "rotation" : [
                0,
                -0.9625221490859985,
                0,
                0.2712031304836273
            ],
            "scale" : [
                0.21795371174812317,
                0.21795371174812317,
                0.21795371174812317
            ],
            "translation" : [
                -1.0881476402282715,
                0.4081946015357971,
                -0.03276018053293228
            ]
        },
        {
            "mesh" : 4,
            "name" : "phone",
            "rotation" : [
                -0.0012359385145828128,
                0.16058412194252014,
                0.025300033390522003,
                0.9866970777511597
            ],
            "scale" : [
                0.36727777123451233,
                0.3672778606414795,
                0.3672778606414795
            ],
            "translation" : [
                -0.022991657257080078,
                0.3796657919883728,
                0.32684728503227234
            ]
        }
    ],
    "materials" : [
        {
            "doubleSided" : true,
            "emissiveFactor" : [
                0,
                0,
                0
            ],
            "name" : "Material.005",
            "pbrMetallicRoughness" : {
                "baseColorFactor" : [
                    1,
                    0.8103240132331848,
                    0.8865857124328613,
                    1
                ],
                "metallicFactor" : 0.07999999821186066,
                "roughnessFactor" : 0.5
            }
        },
        {
            "doubleSided" : true,
            "emissiveFactor" : [
                0,
                0,
                0
            ],
            "name" : "Material.003",
            "pbrMetallicRoughness" : {
                "baseColorFactor" : [
                    0.10806185752153397,
                    0.14913958311080933,
                    0.07233632355928421,
                    1
                ],
                "metallicFactor" : 0,
                "roughnessFactor" : 0.5
            }
        },
        {
            "doubleSided" : true,
            "emissiveFactor" : [
                0,
                0,
                0
            ],
            "name" : "Material.002",
            "pbrMetallicRoughness" : {
                "baseColorFactor" : [
                    0.3362974226474762,
                    0.3362974226474762,
                    0.3362974226474762,
                    1
                ],
                "metallicFactor" : 0.45313727855682373,
                "roughnessFactor" : 0.5
            }
        },
        {
            "doubleSided" : true,
            "emissiveFactor" : [
                0,
                0,
                0
            ],
            "name" : "Material.004",
            "pbrMetallicRoughness" : {
                "baseColorFactor" : [
                    1,
                    0.40540820360183716,
                    0.7090857625007629,
                    1
                ],
                "metallicFactor" : 0.11999999731779099,
                "roughnessFactor" : 0.5
            }
        },
        {
            "doubleSided" : true,
            "emissiveFactor" : [
                0,
                0,
                0
            ],
            "name" : "Material.001",
            "pbrMetallicRoughness" : {
                "baseColorTexture" : {
                    "index" : 0,
                    "texCoord" : 0
                },
                "metallicFactor" : 0,
                "roughnessFactor" : 0.5
            }
        }
    ],
    "meshes" : [
        {
            "name" : "Cylinder.001",
            "primitives" : [
                {
                    "attributes" : {
                        "POSITION" : 0,
                        "NORMAL" : 1,
                        "TEXCOORD_0" : 2
                    },
                    "indices" : 3,
                    "material" : 0
                }
            ]
        },
        {
            "name" : "Plane",
            "primitives" : [
                {
                    "attributes" : {
                        "POSITION" : 4,
                        "NORMAL" : 5,
                        "TEXCOORD_0" : 6
                    },
                    "indices" : 7,
                    "material" : 1
                }
            ]
        },
        {
            "name" : "Cube",
            "primitives" : [
                {
                    "attributes" : {
                        "POSITION" : 8,
                        "NORMAL" : 9,
                        "TEXCOORD_0" : 10
                    },
                    "indices" : 11,
                    "material" : 2
                }
            ]
        },
        {
            "name" : "Cylinder",
            "primitives" : [
                {
                    "attributes" : {
                        "POSITION" : 12,
                        "NORMAL" : 13,
                        "TEXCOORD_0" : 14
                    },
                    "indices" : 15,
                    "material" : 3
                }
            ]
        },
        {
            "name" : "Cube.002",
            "primitives" : [
                {
                    "attributes" : {
                        "POSITION" : 16,
                        "NORMAL" : 17,
                        "TEXCOORD_0" : 18
                    },
                    "indices" : 19,
                    "material" : 4
                }
            ]
        }
    ],
    "textures" : [
        {
            "source" : 0
        }
    ],
    "images" : [
        {
            "bufferView" : 20,
            "mimeType" : "image/png",
            "name" : "phone"
        }
    ],
    "accessors" : [
        {
            "bufferView" : 0,
            "componentType" : 5126,
            "count" : 968,
            "max" : [
                1.7452335357666016,
                0.12400001287460327,
                1.7452336549758911
            ],
            "min" : [
                -1.7452336549758911,
                -0.18233399093151093,
                -1.7452335357666016
            ],
            "type" : "VEC3"
        },
        {
            "bufferView" : 1,
            "componentType" : 5126,
            "count" : 968,
            "type" : "VEC3"
        },
        {
            "bufferView" : 2,
            "componentType" : 5126,
            "count" : 968,
            "type" : "VEC2"
        },
        {
            "bufferView" : 3,
            "componentType" : 5123,
            "count" : 1668,
            "type" : "SCALAR"
        },
        {
            "bufferView" : 4,
            "componentType" : 5126,
            "count" : 4,
            "max" : [
                1,
                0,
                1
            ],
            "min" : [
                -1,
                0,
                -1
            ],
            "type" : "VEC3"
        },
        {
            "bufferView" : 5,
            "componentType" : 5126,
            "count" : 4,
            "type" : "VEC3"
        },
        {
            "bufferView" : 6,
            "componentType" : 5126,
            "count" : 4,
            "type" : "VEC2"
        },
        {
            "bufferView" : 7,
            "componentType" : 5123,
            "count" : 6,
            "type" : "SCALAR"
        },
        {
            "bufferView" : 8,
            "componentType" : 5126,
            "count" : 297,
            "max" : [
                6.924932956695557,
                1.2357711791992188,
                1.0726544857025146
            ],
            "min" : [
                -6.617160320281982,
                -1,
                -0.9984695911407471
            ],
            "type" : "VEC3"
        },
        {
            "bufferView" : 9,
            "componentType" : 5126,
            "count" : 297,
            "type" : "VEC3"
        },
        {
            "bufferView" : 10,
            "componentType" : 5126,
            "count" : 297,
            "type" : "VEC2"
        },
        {
            "bufferView" : 11,
            "componentType" : 5123,
            "count" : 504,
            "type" : "SCALAR"
        },
        {
            "bufferView" : 12,
            "componentType" : 5126,
            "count" : 7473,
            "max" : [
                1.603212833404541,
                1,
                1.0406262874603271
            ],
            "min" : [
                -1.0406262874603271,
                -1.0920073986053467,
                -1.0406262874603271
            ],
            "type" : "VEC3"
        },
        {
            "bufferView" : 13,
            "componentType" : 5126,
            "count" : 7473,
            "type" : "VEC3"
        },
        {
            "bufferView" : 14,
            "componentType" : 5126,
            "count" : 7473,
            "type" : "VEC2"
        },
        {
            "bufferView" : 15,
            "componentType" : 5123,
            "count" : 12048,
            "type" : "SCALAR"
        },
        {
            "bufferView" : 16,
            "componentType" : 5126,
            "count" : 1186,
            "max" : [
                1.8610906600952148,
                0.2896273732185364,
                1.9054914712905884
            ],
            "min" : [
                -1.8580996990203857,
                -0.23214319348335266,
                -1.904807686805725
            ],
            "type" : "VEC3"
        },
        {
            "bufferView" : 17,
            "componentType" : 5126,
            "count" : 1186,
            "type" : "VEC3"
        },
        {
            "bufferView" : 18,
            "componentType" : 5126,
            "count" : 1186,
            "type" : "VEC2"
        },
        {
            "bufferView" : 19,
            "componentType" : 5123,
            "count" : 1980,
            "type" : "SCALAR"
        }
    ],
    "bufferViews" : [
        {
            "buffer" : 0,
            "byteLength" : 11616,
            "byteOffset" : 0
        },
        {
            "buffer" : 0,
            "byteLength" : 11616,
            "byteOffset" : 11616
        },
        {
            "buffer" : 0,
            "byteLength" : 7744,
            "byteOffset" : 23232
        },
        {
            "buffer" : 0,
            "byteLength" : 3336,
            "byteOffset" : 30976
        },
        {
            "buffer" : 0,
            "byteLength" : 48,
            "byteOffset" : 34312
        },
        {
            "buffer" : 0,
            "byteLength" : 48,
            "byteOffset" : 34360
        },
        {
            "buffer" : 0,
            "byteLength" : 32,
            "byteOffset" : 34408
        },
        {
            "buffer" : 0,
            "byteLength" : 12,
            "byteOffset" : 34440
        },
        {
            "buffer" : 0,
            "byteLength" : 3564,
            "byteOffset" : 34452
        },
        {
            "buffer" : 0,
            "byteLength" : 3564,
            "byteOffset" : 38016
        },
        {
            "buffer" : 0,
            "byteLength" : 2376,
            "byteOffset" : 41580
        },
        {
            "buffer" : 0,
            "byteLength" : 1008,
            "byteOffset" : 43956
        },
        {
            "buffer" : 0,
            "byteLength" : 89676,
            "byteOffset" : 44964
        },
        {
            "buffer" : 0,
            "byteLength" : 89676,
            "byteOffset" : 134640
        },
        {
            "buffer" : 0,
            "byteLength" : 59784,
            "byteOffset" : 224316
        },
        {
            "buffer" : 0,
            "byteLength" : 24096,
            "byteOffset" : 284100
        },
        {
            "buffer" : 0,
            "byteLength" : 14232,
            "byteOffset" : 308196
        },
        {
            "buffer" : 0,
            "byteLength" : 14232,
            "byteOffset" : 322428
        },
        {
            "buffer" : 0,
            "byteLength" : 9488,
            "byteOffset" : 336660
        },
        {
            "buffer" : 0,
            "byteLength" : 3960,
            "byteOffset" : 346148
        },
        {
            "buffer" : 0,
            "byteLength" : 106873,
            "byteOffset" : 350108
        }
    ],
    "buffers" : [
        {
            "byteLength" : 456984,
            "uri" : "data:application/octet-stream;base64,"
        }
    ]
}
