{
    "asset" : {
        "generator" : "Khronos glTF Blender I/O v1.1.46",
        "version" : "2.0"
    },
    "scene" : 0,
    "scenes" : [
        {
            "name" : "Scene",
            "nodes" : [
                0,
                1,
                2,
                3,
                4
            ]
        }
    ],
    "nodes" : [
        {
            "mesh" : 0,
            "name" : "chair",
            "scale" : [
                0.5798612236976624,
                0.04417410492897034,
                0.4670577645301819
            ],
            "translation" : [
                0.9799162149429321,
                1.1874171495437622,
                2.143604278564453
            ]
        },
        {
            "mesh" : 1,
            "name" : "quiilt",
            "scale" : [
                0.13769692182540894,
                0.13769692182540894,
                0.13769692182540894
            ],
            "translation" : [
                0.7751733064651489,
                3.5810813903808594,
                0.14933699369430542
            ]
        },
        {
            "mesh" : 2,
            "name" : "Cylinder",
            "rotation" : [
                0.7071067690849304,
                0,
                0,
                0.7071067690849304
            ],
            "scale" : [
                2.355276346206665,
                0.24884618818759918,
                2.3551032543182373
            ],
            "translation" : [
                -1.701843500137329,
                4.291123390197754,
                -0.057622551918029785
            ]
        },
        {
            "mesh" : 3,
            "name" : "table",
            "scale" : [
                1.0308793783187866,
                0.09031666070222855,
                0.9549281001091003
            ],
            "translation" : [
                0.978306770324707,
                1.379250407218933,
                0.6517366766929626
            ]
        },
        {
            "mesh" : 4,
            "name" : "wall",
            "scale" : [
                4.095887184143066,
                3.557314395904541,
                0.0781996101140976
            ],
            "translation" : [
                0.10733509063720703,
                3.3169002532958984,
                -0.3518959581851959
            ]
        }
    ],
    "materials" : [
        {
            "doubleSided" : true,
            "emissiveFactor" : [
                0,
                0,
                0
            ],
            "name" : "TABLE",
            "pbrMetallicRoughness" : {
                "baseColorFactor" : [
                    0.2641034722328186,
                    0.110483817756176,
                    0.20019470155239105,
                    1
                ],
                "metallicFactor" : 0,
                "roughnessFactor" : 0.6528662443161011
            }
        },
        {
            "doubleSided" : true,
            "emissiveFactor" : [
                0,
                0,
                0
            ],
            "name" : "QUILT",
            "pbrMetallicRoughness" : {
                "baseColorTexture" : {
                    "index" : 0,
                    "texCoord" : 0
                },
                "metallicFactor" : 0,
                "roughnessFactor" : 0.5
            }
        },
        {
            "doubleSided" : true,
            "emissiveFactor" : [
                0,
                0,
                0
            ],
            "name" : "Material.002",
            "pbrMetallicRoughness" : {
                "baseColorTexture" : {
                    "index" : 1,
                    "texCoord" : 0
                },
                "metallicFactor" : 0,
                "roughnessFactor" : 0.5
            }
        },
        {
            "doubleSided" : true,
            "emissiveFactor" : [
                0,
                0,
                0
            ],
            "name" : "WALL",
            "pbrMetallicRoughness" : {
                "baseColorFactor" : [
                    0.8000000715255737,
                    0.6703835725784302,
                    0.3924414813518524,
                    1
                ],
                "metallicFactor" : 0,
                "roughnessFactor" : 0.5
            }
        }
    ],
    "meshes" : [
        {
            "name" : "Cube.004",
            "primitives" : [
                {
                    "attributes" : {
                        "POSITION" : 0,
                        "NORMAL" : 1,
                        "TEXCOORD_0" : 2
                    },
                    "indices" : 3,
                    "material" : 0
                }
            ]
        },
        {
            "name" : "Cube.003",
            "primitives" : [
                {
                    "attributes" : {
                        "POSITION" : 4,
                        "NORMAL" : 5,
                        "TEXCOORD_0" : 6
                    },
                    "indices" : 7,
                    "material" : 1
                }
            ]
        },
        {
            "name" : "Cylinder",
            "primitives" : [
                {
                    "attributes" : {
                        "POSITION" : 8,
                        "NORMAL" : 9,
                        "TEXCOORD_0" : 10
                    },
                    "indices" : 11,
                    "material" : 2
                }
            ]
        },
        {
            "name" : "Cube.001",
            "primitives" : [
                {
                    "attributes" : {
                        "POSITION" : 12,
                        "NORMAL" : 13,
                        "TEXCOORD_0" : 14
                    },
                    "indices" : 15,
                    "material" : 0
                }
            ]
        },
        {
            "name" : "Cube.002",
            "primitives" : [
                {
                    "attributes" : {
                        "POSITION" : 16,
                        "NORMAL" : 17,
                        "TEXCOORD_0" : 18
                    },
                    "indices" : 19,
                    "material" : 3
                }
            ]
        }
    ],
    "textures" : [
        {
            "source" : 0
        },
        {
            "source" : 1
        }
    ],
    "images" : [
        {
            "bufferView" : 8,
            "mimeType" : "image/png",
            "name" : "quilt2"
        },
        {
            "bufferView" : 13,
            "mimeType" : "image/png",
            "name" : "hoop"
        }
    ],
    "accessors" : [
        {
            "bufferView" : 0,
            "componentType" : 5126,
            "count" : 200,
            "max" : [
                0.9169857501983643,
                32.59515380859375,
                1.1849913597106934
            ],
            "min" : [
                -0.9118144512176514,
                -23.669946670532227,
                -1.0944609642028809
            ],
            "type" : "VEC3"
        },
        {
            "bufferView" : 1,
            "componentType" : 5126,
            "count" : 200,
            "type" : "VEC3"
        },
        {
            "bufferView" : 2,
            "componentType" : 5126,
            "count" : 200,
            "type" : "VEC2"
        },
        {
            "bufferView" : 3,
            "componentType" : 5123,
            "count" : 324,
            "type" : "SCALAR"
        },
        {
            "bufferView" : 4,
            "componentType" : 5126,
            "count" : 88,
            "max" : [
                6.365571975708008,
                17.794904708862305,
                9.306880950927734
            ],
            "min" : [
                -3.4545936584472656,
                -10.5723237991333,
                -2.764808177947998
            ],
            "type" : "VEC3"
        },
        {
            "bufferView" : 5,
            "componentType" : 5126,
            "count" : 88,
            "type" : "VEC3"
        },
        {
            "bufferView" : 6,
            "componentType" : 5126,
            "count" : 88,
            "type" : "VEC2"
        },
        {
            "bufferView" : 7,
            "componentType" : 5123,
            "count" : 132,
            "type" : "SCALAR"
        },
        {
            "bufferView" : 9,
            "componentType" : 5126,
            "count" : 1117,
            "max" : [
                0.3199700713157654,
                0.14698675274848938,
                0.5205602645874023
            ],
            "min" : [
                -0.2896299362182617,
                -0.7337300181388855,
                -0.1400003433227539
            ],
            "type" : "VEC3"
        },
        {
            "bufferView" : 10,
            "componentType" : 5126,
            "count" : 1117,
            "type" : "VEC3"
        },
        {
            "bufferView" : 11,
            "componentType" : 5126,
            "count" : 1117,
            "type" : "VEC2"
        },
        {
            "bufferView" : 12,
            "componentType" : 5123,
            "count" : 1932,
            "type" : "SCALAR"
        },
        {
            "bufferView" : 14,
            "componentType" : 5126,
            "count" : 168,
            "max" : [
                0.9174156785011292,
                8.239666938781738,
                0.9145758748054504
            ],
            "min" : [
                -0.9113843441009521,
                -14.228785514831543,
                -0.9142242074012756
            ],
            "type" : "VEC3"
        },
        {
            "bufferView" : 15,
            "componentType" : 5126,
            "count" : 168,
            "type" : "VEC3"
        },
        {
            "bufferView" : 16,
            "componentType" : 5126,
            "count" : 168,
            "type" : "VEC2"
        },
        {
            "bufferView" : 17,
            "componentType" : 5123,
            "count" : 276,
            "type" : "SCALAR"
        },
        {
            "bufferView" : 18,
            "componentType" : 5126,
            "count" : 24,
            "max" : [
                0.914400041103363,
                0.914400041103363,
                0.914400577545166
            ],
            "min" : [
                -0.9144001007080078,
                -0.914400041103363,
                -0.9143996238708496
            ],
            "type" : "VEC3"
        },
        {
            "bufferView" : 19,
            "componentType" : 5126,
            "count" : 24,
            "type" : "VEC3"
        },
        {
            "bufferView" : 20,
            "componentType" : 5126,
            "count" : 24,
            "type" : "VEC2"
        },
        {
            "bufferView" : 21,
            "componentType" : 5123,
            "count" : 36,
            "type" : "SCALAR"
        }
    ],
    "bufferViews" : [
        {
            "buffer" : 0,
            "byteLength" : 2400,
            "byteOffset" : 0
        },
        {
            "buffer" : 0,
            "byteLength" : 2400,
            "byteOffset" : 2400
        },
        {
            "buffer" : 0,
            "byteLength" : 1600,
            "byteOffset" : 4800
        },
        {
            "buffer" : 0,
            "byteLength" : 648,
            "byteOffset" : 6400
        },
        {
            "buffer" : 0,
            "byteLength" : 1056,
            "byteOffset" : 7048
        },
        {
            "buffer" : 0,
            "byteLength" : 1056,
            "byteOffset" : 8104
        },
        {
            "buffer" : 0,
            "byteLength" : 704,
            "byteOffset" : 9160
        },
        {
            "buffer" : 0,
            "byteLength" : 264,
            "byteOffset" : 9864
        },
        {
            "buffer" : 0,
            "byteLength" : 1411084,
            "byteOffset" : 10128
        },
        {
            "buffer" : 0,
            "byteLength" : 13404,
            "byteOffset" : 1421212
        },
        {
            "buffer" : 0,
            "byteLength" : 13404,
            "byteOffset" : 1434616
        },
        {
            "buffer" : 0,
            "byteLength" : 8936,
            "byteOffset" : 1448020
        },
        {
            "buffer" : 0,
            "byteLength" : 3864,
            "byteOffset" : 1456956
        },
        {
            "buffer" : 0,
            "byteLength" : 159277,
            "byteOffset" : 1460820
        },
        {
            "buffer" : 0,
            "byteLength" : 2016,
            "byteOffset" : 1620100
        },
        {
            "buffer" : 0,
            "byteLength" : 2016,
            "byteOffset" : 1622116
        },
        {
            "buffer" : 0,
            "byteLength" : 1344,
            "byteOffset" : 1624132
        },
        {
            "buffer" : 0,
            "byteLength" : 552,
            "byteOffset" : 1625476
        },
        {
            "buffer" : 0,
            "byteLength" : 288,
            "byteOffset" : 1626028
        },
        {
            "buffer" : 0,
            "byteLength" : 288,
            "byteOffset" : 1626316
        },
        {
            "buffer" : 0,
            "byteLength" : 192,
            "byteOffset" : 1626604
        },
        {
            "buffer" : 0,
            "byteLength" : 72,
            "byteOffset" : 1626796
        }
    ],
    "buffers" : [
        {
            "byteLength" : 1626868,
            "uri" : "data:application/octet-stream;base64,"
        }
    ]
}
