{
    "asset" : {
        "generator" : "Khronos glTF Blender I/O v1.1.46",
        "version" : "2.0"
    },
    "scene" : 0,
    "scenes" : [
        {
            "name" : "Scene",
            "nodes" : [
                0,
                1,
                2,
                3
            ]
        }
    ],
    "nodes" : [
        {
            "mesh" : 0,
            "name" : "chair",
            "scale" : [
                0.5798612236976624,
                0.04417410492897034,
                0.4670577645301819
            ],
            "translation" : [
                -1.7845834493637085,
                1.3696603775024414,
                2.0595054626464844
            ]
        },
        {
            "mesh" : 1,
            "name" : "Cube",
            "scale" : [
                0.13769692182540894,
                0.13769692182540894,
                0.13769692182540894
            ],
            "translation" : [
                -1.7845834493637085,
                0.08842182159423828,
                0.6519045233726501
            ]
        },
        {
            "mesh" : 2,
            "name" : "table",
            "scale" : [
                1.0308793783187866,
                0.09031666070222855,
                0.9549281001091003
            ],
            "translation" : [
                -1.7845834493637085,
                2.040843963623047,
                0.6519045233726501
            ]
        },
        {
            "mesh" : 3,
            "name" : "wall",
            "scale" : [
                4.095887184143066,
                3.557314395904541,
                0.0781996101140976
            ],
            "translation" : [
                -2.924468994140625,
                3.300973892211914,
                -0.33929872512817383
            ]
        }
    ],
    "materials" : [
        {
            "doubleSided" : true,
            "emissiveFactor" : [
                0,
                0,
                0
            ],
            "name" : "TABLE",
            "pbrMetallicRoughness" : {
                "baseColorFactor" : [
                    0.18676277995109558,
                    0.15811893343925476,
                    0.1956981122493744,
                    0.7011494636535645
                ],
                "metallicFactor" : 0,
                "roughnessFactor" : 0.5
            }
        },
        {
            "doubleSided" : true,
            "emissiveFactor" : [
                0,
                0,
                0
            ],
            "name" : "QUILT",
            "pbrMetallicRoughness" : {
                "baseColorTexture" : {
                    "index" : 0,
                    "texCoord" : 0
                },
                "metallicFactor" : 0,
                "roughnessFactor" : 0.5
            }
        },
        {
            "doubleSided" : true,
            "emissiveFactor" : [
                0,
                0,
                0
            ],
            "name" : "WALL",
            "pbrMetallicRoughness" : {
                "baseColorFactor" : [
                    0.8000000715255737,
                    0.517641544342041,
                    0.46860888600349426,
                    1
                ],
                "metallicFactor" : 0,
                "roughnessFactor" : 0.5
            }
        }
    ],
    "meshes" : [
        {
            "name" : "Cube.003",
            "primitives" : [
                {
                    "attributes" : {
                        "POSITION" : 0,
                        "NORMAL" : 1,
                        "TEXCOORD_0" : 2
                    },
                    "indices" : 3,
                    "material" : 0
                }
            ]
        },
        {
            "name" : "Cube",
            "primitives" : [
                {
                    "attributes" : {
                        "POSITION" : 4,
                        "NORMAL" : 5,
                        "TEXCOORD_0" : 6
                    },
                    "indices" : 7,
                    "material" : 1
                }
            ]
        },
        {
            "name" : "Cube.001",
            "primitives" : [
                {
                    "attributes" : {
                        "POSITION" : 8,
                        "NORMAL" : 9,
                        "TEXCOORD_0" : 10
                    },
                    "indices" : 11,
                    "material" : 0
                }
            ]
        },
        {
            "name" : "Cube.002",
            "primitives" : [
                {
                    "attributes" : {
                        "POSITION" : 12,
                        "NORMAL" : 13,
                        "TEXCOORD_0" : 14
                    },
                    "indices" : 15,
                    "material" : 2
                }
            ]
        }
    ],
    "textures" : [
        {
            "source" : 0
        }
    ],
    "images" : [
        {
            "bufferView" : 8,
            "mimeType" : "image/png",
            "name" : "quilt2"
        }
    ],
    "accessors" : [
        {
            "bufferView" : 0,
            "componentType" : 5126,
            "count" : 200,
            "max" : [
                0.914400041103363,
                28.469585418701172,
                1.3650522232055664
            ],
            "min" : [
                -0.914400041103363,
                -27.795515060424805,
                -0.914400041103363
            ],
            "type" : "VEC3"
        },
        {
            "bufferView" : 1,
            "componentType" : 5126,
            "count" : 200,
            "type" : "VEC3"
        },
        {
            "bufferView" : 2,
            "componentType" : 5126,
            "count" : 200,
            "type" : "VEC2"
        },
        {
            "bufferView" : 3,
            "componentType" : 5123,
            "count" : 324,
            "type" : "SCALAR"
        },
        {
            "bufferView" : 4,
            "componentType" : 5126,
            "count" : 88,
            "max" : [
                4.867772579193115,
                43.15974044799805,
                5.657071113586426
            ],
            "min" : [
                -4.952392101287842,
                14.792510986328125,
                -6.414617538452148
            ],
            "type" : "VEC3"
        },
        {
            "bufferView" : 5,
            "componentType" : 5126,
            "count" : 88,
            "type" : "VEC3"
        },
        {
            "bufferView" : 6,
            "componentType" : 5126,
            "count" : 88,
            "type" : "VEC2"
        },
        {
            "bufferView" : 7,
            "componentType" : 5123,
            "count" : 132,
            "type" : "SCALAR"
        },
        {
            "bufferView" : 9,
            "componentType" : 5126,
            "count" : 168,
            "max" : [
                0.914400041103363,
                0.914400041103363,
                0.914400041103363
            ],
            "min" : [
                -0.914400041103363,
                -21.554052352905273,
                -0.914400041103363
            ],
            "type" : "VEC3"
        },
        {
            "bufferView" : 10,
            "componentType" : 5126,
            "count" : 168,
            "type" : "VEC3"
        },
        {
            "bufferView" : 11,
            "componentType" : 5126,
            "count" : 168,
            "type" : "VEC2"
        },
        {
            "bufferView" : 12,
            "componentType" : 5123,
            "count" : 276,
            "type" : "SCALAR"
        },
        {
            "bufferView" : 13,
            "componentType" : 5126,
            "count" : 24,
            "max" : [
                0.914400041103363,
                0.914400041103363,
                0.914400041103363
            ],
            "min" : [
                -0.914400041103363,
                -0.914400041103363,
                -0.914400041103363
            ],
            "type" : "VEC3"
        },
        {
            "bufferView" : 14,
            "componentType" : 5126,
            "count" : 24,
            "type" : "VEC3"
        },
        {
            "bufferView" : 15,
            "componentType" : 5126,
            "count" : 24,
            "type" : "VEC2"
        },
        {
            "bufferView" : 16,
            "componentType" : 5123,
            "count" : 36,
            "type" : "SCALAR"
        }
    ],
    "bufferViews" : [
        {
            "buffer" : 0,
            "byteLength" : 2400,
            "byteOffset" : 0
        },
        {
            "buffer" : 0,
            "byteLength" : 2400,
            "byteOffset" : 2400
        },
        {
            "buffer" : 0,
            "byteLength" : 1600,
            "byteOffset" : 4800
        },
        {
            "buffer" : 0,
            "byteLength" : 648,
            "byteOffset" : 6400
        },
        {
            "buffer" : 0,
            "byteLength" : 1056,
            "byteOffset" : 7048
        },
        {
            "buffer" : 0,
            "byteLength" : 1056,
            "byteOffset" : 8104
        },
        {
            "buffer" : 0,
            "byteLength" : 704,
            "byteOffset" : 9160
        },
        {
            "buffer" : 0,
            "byteLength" : 264,
            "byteOffset" : 9864
        },
        {
            "buffer" : 0,
            "byteLength" : 1564362,
            "byteOffset" : 10128
        },
        {
            "buffer" : 0,
            "byteLength" : 2016,
            "byteOffset" : 1574492
        },
        {
            "buffer" : 0,
            "byteLength" : 2016,
            "byteOffset" : 1576508
        },
        {
            "buffer" : 0,
            "byteLength" : 1344,
            "byteOffset" : 1578524
        },
        {
            "buffer" : 0,
            "byteLength" : 552,
            "byteOffset" : 1579868
        },
        {
            "buffer" : 0,
            "byteLength" : 288,
            "byteOffset" : 1580420
        },
        {
            "buffer" : 0,
            "byteLength" : 288,
            "byteOffset" : 1580708
        },
        {
            "buffer" : 0,
            "byteLength" : 192,
            "byteOffset" : 1580996
        },
        {
            "buffer" : 0,
            "byteLength" : 72,
            "byteOffset" : 1581188
        }
    ],
    "buffers" : [
        {
            "byteLength" : 1581260,
            "uri" : "data:application/octet-stream;base64,"
        }
    ]
}
