{
    "asset" : {
        "generator" : "Khronos glTF Blender I/O v1.1.46",
        "version" : "2.0"
    },
    "scene" : 0,
    "scenes" : [
        {
            "name" : "Scene",
            "nodes" : [
                0,
                1
            ]
        }
    ],
    "nodes" : [
        {
            "mesh" : 0,
            "name" : "Cylinder.001",
            "rotation" : [
                -0.5039228200912476,
                -0.49609532952308655,
                0.5038736462593079,
                0.49604693055152893
            ],
            "scale" : [
                0.6049696803092957,
                0.6049696803092957,
                0.6049696803092957
            ],
            "translation" : [
                1.3230690956115723,
                0.6115265488624573,
                0.7402136921882629
            ]
        },
        {
            "mesh" : 1,
            "name" : "Cube",
            "rotation" : [
                -0.5039228200912476,
                -0.49609532952308655,
                0.5038736462593079,
                0.49604693055152893
            ],
            "scale" : [
                0.7213414907455444,
                0.9779971241950989,
                0.7196290493011475
            ],
            "translation" : [
                -0.02793198823928833,
                0.3593752682209015,
                -0.2017671763896942
            ]
        }
    ],
    "materials" : [
        {
            "doubleSided" : true,
            "emissiveFactor" : [
                0,
                0,
                0
            ],
            "name" : "windows.004",
            "pbrMetallicRoughness" : {
                "baseColorTexture" : {
                    "index" : 0,
                    "texCoord" : 0
                },
                "metallicFactor" : 0,
                "roughnessFactor" : 0.5
            }
        },
        {
            "doubleSided" : true,
            "emissiveFactor" : [
                0,
                0,
                0
            ],
            "name" : "walls",
            "pbrMetallicRoughness" : {
                "baseColorFactor" : [
                    0.800000011920929,
                    0.800000011920929,
                    0.800000011920929,
                    1
                ],
                "metallicFactor" : 0,
                "roughnessFactor" : 0.5
            }
        }
    ],
    "meshes" : [
        {
            "name" : "Cylinder.008",
            "primitives" : [
                {
                    "attributes" : {
                        "POSITION" : 0,
                        "NORMAL" : 1,
                        "TEXCOORD_0" : 2
                    },
                    "indices" : 3,
                    "material" : 0
                }
            ]
        },
        {
            "name" : "Cube.009",
            "primitives" : [
                {
                    "attributes" : {
                        "POSITION" : 4,
                        "NORMAL" : 5,
                        "TEXCOORD_0" : 6
                    },
                    "indices" : 7,
                    "material" : 1
                }
            ]
        }
    ],
    "textures" : [
        {
            "source" : 0
        }
    ],
    "images" : [
        {
            "bufferView" : 4,
            "mimeType" : "image/png",
            "name" : "windowinside1.png"
        }
    ],
    "accessors" : [
        {
            "bufferView" : 0,
            "componentType" : 5126,
            "count" : 318,
            "max" : [
                0.6307254433631897,
                3.219102382659912,
                3.2848362922668457
            ],
            "min" : [
                -1.3093211650848389,
                0.03400611877441406,
                1.1322810649871826
            ],
            "type" : "VEC3"
        },
        {
            "bufferView" : 1,
            "componentType" : 5126,
            "count" : 318,
            "type" : "VEC3"
        },
        {
            "bufferView" : 2,
            "componentType" : 5126,
            "count" : 318,
            "type" : "VEC2"
        },
        {
            "bufferView" : 3,
            "componentType" : 5123,
            "count" : 618,
            "type" : "SCALAR"
        },
        {
            "bufferView" : 5,
            "componentType" : 5126,
            "count" : 72,
            "max" : [
                1.1204230785369873,
                1.2699239253997803,
                1.720438003540039
            ],
            "min" : [
                -1.6627577543258667,
                -1.0751113891601562,
                -1.72732412815094
            ],
            "type" : "VEC3"
        },
        {
            "bufferView" : 6,
            "componentType" : 5126,
            "count" : 72,
            "type" : "VEC3"
        },
        {
            "bufferView" : 7,
            "componentType" : 5126,
            "count" : 72,
            "type" : "VEC2"
        },
        {
            "bufferView" : 8,
            "componentType" : 5123,
            "count" : 108,
            "type" : "SCALAR"
        }
    ],
    "bufferViews" : [
        {
            "buffer" : 0,
            "byteLength" : 3816,
            "byteOffset" : 0
        },
        {
            "buffer" : 0,
            "byteLength" : 3816,
            "byteOffset" : 3816
        },
        {
            "buffer" : 0,
            "byteLength" : 2544,
            "byteOffset" : 7632
        },
        {
            "buffer" : 0,
            "byteLength" : 1236,
            "byteOffset" : 10176
        },
        {
            "buffer" : 0,
            "byteLength" : 171250,
            "byteOffset" : 11412
        },
        {
            "buffer" : 0,
            "byteLength" : 864,
            "byteOffset" : 182664
        },
        {
            "buffer" : 0,
            "byteLength" : 864,
            "byteOffset" : 183528
        },
        {
            "buffer" : 0,
            "byteLength" : 576,
            "byteOffset" : 184392
        },
        {
            "buffer" : 0,
            "byteLength" : 216,
            "byteOffset" : 184968
        }
    ],
    "buffers" : [
        {
            "byteLength" : 185184,
            "uri" : "data:application/octet-stream;base64,"
        }
    ]
}
