# Blender v2.82 (sub 7) OBJ File: 'setting.blend'
# www.blender.org
mtllib setting.mtl
o chair_Cube.003
v -3.850668 9.011421 13.324034
v -3.850668 9.011421 7.120879
v 3.850668 9.011421 13.324034
v 3.850668 9.011421 7.120879
v -3.363079 9.736863 12.931297
v -3.850668 9.265917 13.324034
v -3.509854 9.439937 13.113017
v -3.780471 9.394483 13.059041
v -3.363079 9.736863 7.513614
v -3.850668 9.265917 7.120879
v -3.588687 9.439937 7.331895
v -3.780471 9.394483 7.177420
v 3.363079 9.736863 12.931297
v 3.850668 9.265917 13.324034
v 3.509854 9.439937 13.113017
v 3.780471 9.394483 13.059041
v 3.363079 9.736863 7.513614
v 3.850668 9.265917 7.120879
v 3.588687 9.439937 7.331895
v 3.780471 9.394483 7.177420
v -3.850668 9.011421 7.711617
v 3.850668 9.011421 7.727011
v -3.850668 9.011421 12.714748
v 3.850668 9.011421 12.729434
v 3.048957 9.011421 7.120879
v 3.050471 9.011421 7.725412
v 3.063006 9.011421 12.727932
v 3.064501 9.011421 13.324034
v -3.155630 9.011421 7.120879
v -3.110188 9.011421 13.324034
v -3.114643 9.011421 12.716152
v -3.151291 9.011421 7.713016
v -3.753002 0.387777 12.795446
v -3.753002 0.387777 13.243522
v -3.299837 0.387777 7.243975
v -3.705558 0.387777 7.243975
v 3.694512 0.387777 7.608683
v 3.694512 0.387777 7.238895
v 3.191202 0.387777 13.227993
v 3.723726 0.387777 13.227993
v -3.705558 0.387777 7.588812
v 3.206331 0.387777 7.607707
v 3.723726 0.387777 12.825232
v 3.190189 0.387777 12.824213
v 3.205408 0.387777 7.238895
v -3.208444 0.387777 13.243522
v -3.211720 0.387777 12.796478
v -3.297304 0.387777 7.589628
v -3.588687 18.044624 14.472527
v -3.326706 17.748089 14.261511
v -3.780471 18.438004 14.627003
v -3.850668 18.376453 14.852612
v 3.326706 17.748089 14.261511
v 3.588687 18.044624 14.472527
v 3.780471 18.438004 14.627003
v 3.850668 18.376453 14.852612
vt 0.642009 0.517009
vt 0.857991 0.517009
vt 0.857991 0.732991
vt 0.173832 0.955980
vt 0.375000 0.500000
vt 0.607991 0.500000
vt 0.607991 0.750000
vt 0.375000 0.750000
vt 0.375000 0.726036
vt 0.375000 0.524428
vt 0.375000 0.000000
vt 0.607991 0.000000
vt 0.607991 0.250000
vt 0.375000 0.250000
vt 0.375000 0.226192
vt 0.375000 0.024555
vt 0.148893 0.725501
vt 0.149037 0.750000
vt 0.149037 0.750000
vt 0.148893 0.725501
vt 0.375000 0.473975
vt 0.375000 0.272562
vt 0.866496 0.508504
vt 0.866496 0.741496
vt 0.875000 0.502279
vt 0.875000 0.747721
vt 0.616496 0.002279
vt 0.616496 0.247721
vt 0.633504 0.508504
vt 0.627279 0.500000
vt 0.872721 0.500000
vt 0.616496 0.252279
vt 0.616496 0.497721
vt 0.633504 0.741496
vt 0.616496 0.747721
vt 0.616496 0.502279
vt 0.616496 0.747721
vt 0.607991 0.750000
vt 0.857991 0.732991
vt 0.642009 0.732991
vt 0.875000 0.747721
vt 0.866496 0.741496
vt 0.607991 1.000000
vt 0.375000 1.000000
vt 0.375000 0.975963
vt 0.375000 0.775520
vt 0.125000 0.523808
vt 0.147703 0.523864
vt 0.125000 0.725445
vt 0.375000 0.524428
vt 0.375000 0.500000
vt 0.349431 0.725976
vt 0.349024 0.524364
vt 0.349024 0.524364
vt 0.375000 0.272562
vt 0.375000 0.250000
vt 0.349479 0.750000
vt 0.147562 0.500000
vt 0.348975 0.500000
vt 0.125000 0.500000
vt 0.147562 0.500000
vt 0.147703 0.523864
vt 0.125000 0.523808
vt 0.125000 0.725445
vt 0.125000 0.750000
vt 0.349479 0.750000
vt 0.349431 0.725976
vt 0.375000 0.726036
vt 0.375000 0.750000
vt 0.348975 0.500000
vt 0.375000 0.775520
vt 0.375000 0.473975
vt 0.375000 1.000000
vt 0.375000 0.975963
vt 0.375000 0.226192
vt 0.375000 0.024555
vt 0.375000 0.000000
vt 0.633504 0.741496
vt 0.872721 0.750000
vt 0.627279 0.750000
vt 0.616496 0.752279
vt 0.616496 0.997721
vt 0.607991 1.000000
vt 0.607991 0.000000
vt 0.616496 0.002279
vn 0.0000 1.0000 0.0000
vn 1.0000 0.0000 0.0000
vn -1.0000 0.0000 0.0000
vn 0.9999 -0.0113 -0.0073
vn 0.0000 0.0000 -1.0000
vn -0.8472 0.5312 0.0060
vn -0.1935 0.9811 0.0013
vn -0.8777 0.4792 0.0000
vn 0.0000 0.5220 -0.8529
vn 0.0000 0.9593 -0.2823
vn 0.0000 0.4026 -0.9154
vn 0.8472 0.5312 0.0060
vn 0.1935 0.9811 0.0013
vn 0.8777 0.4792 0.0000
vn 0.9649 0.0442 -0.2590
vn 0.0000 0.1638 -0.9865
vn -0.0912 0.1626 -0.9825
vn 0.0000 0.0000 1.0000
vn 0.0000 -1.0000 0.0000
vn 0.9998 -0.0181 0.0000
vn -0.0020 -0.0137 0.9999
vn 0.0000 -0.0143 -0.9999
vn -0.9999 -0.0147 0.0025
vn 0.0000 -0.0111 0.9999
vn 0.9999 -0.0147 0.0000
vn 0.9998 -0.0168 -0.0073
vn -0.9998 -0.0181 0.0025
vn 0.0019 -0.0111 -0.9999
vn 0.0000 -0.0137 -0.9999
vn 0.0000 -0.0093 1.0000
vn -0.9999 -0.0168 0.0000
vn 0.0019 -0.0093 -1.0000
vn -0.9999 -0.0113 0.0000
vn -0.0020 -0.0143 0.9999
vn 0.0000 0.5798 -0.8148
vn 0.0000 0.3655 -0.9308
vn 0.0000 0.9647 0.2632
vn -0.6884 0.1142 -0.7163
vn 0.0912 0.1626 -0.9825
vn -0.9649 0.0442 -0.2590
vn 0.6884 0.1142 -0.7163
vn 0.0000 -0.1655 0.9862
usemtl TABLE
s off
f 17/1/1 9/2/1 5/3/1 13/4/1
f 4/5/2 18/6/2 14/7/2 3/8/2 24/9/2 22/10/2
f 1/11/3 6/12/3 10/13/3 2/14/3 21/15/3 23/16/3
f 31/17/4 30/18/4 46/19/4 47/20/4
f 2/14/5 10/13/5 18/6/5 4/5/5 25/21/5 29/22/5
f 5/3/6 9/2/6 11/23/6 7/24/6
f 7/24/7 11/23/7 12/25/7 8/26/7
f 8/27/8 12/28/8 10/13/8 6/12/8
f 9/2/9 17/1/9 19/29/9 11/23/9
f 11/23/10 19/29/10 20/30/10 12/31/10
f 12/32/11 20/33/11 18/6/11 10/13/11
f 17/1/12 13/4/12 15/34/12 19/29/12
f 19/29/13 15/34/13 16/35/13 20/36/13
f 20/36/14 16/35/14 14/7/14 18/6/14
f 14/7/15 16/35/15 55/37/15 56/38/15
f 13/4/16 5/3/16 50/39/16 53/40/16
f 7/24/17 8/26/17 51/41/17 49/42/17
f 3/8/18 14/7/18 6/43/18 1/44/18 30/45/18 28/46/18
f 21/47/19 32/48/19 31/17/19 23/49/19
f 4/5/20 22/10/20 37/50/20 38/51/20
f 27/52/19 26/53/19 22/10/19 24/9/19
f 22/10/21 26/53/21 42/54/21 37/50/21
f 2/14/22 29/22/22 35/55/22 36/56/22
f 31/17/19 32/48/19 26/53/19 27/52/19
f 30/18/19 31/17/19 27/52/19 28/57/19
f 32/48/19 29/58/19 25/59/19 26/53/19
f 36/60/19 35/61/19 48/62/19 41/63/19
f 33/64/19 47/20/19 46/19/19 34/65/19
f 39/66/19 44/67/19 43/68/19 40/69/19
f 42/54/19 45/70/19 38/51/19 37/50/19
f 28/57/23 27/52/23 44/67/23 39/66/23
f 3/8/24 28/46/24 39/71/24 40/69/24
f 24/9/25 3/8/25 40/69/25 43/68/25
f 29/58/26 32/48/26 48/62/26 35/61/26
f 26/53/27 25/59/27 45/70/27 42/54/27
f 27/52/28 24/9/28 43/68/28 44/67/28
f 25/21/29 4/5/29 38/51/29 45/72/29
f 30/45/30 1/44/30 34/73/30 46/74/30
f 21/15/31 2/14/31 36/56/31 41/75/31
f 23/49/32 31/17/32 47/20/32 33/64/32
f 1/11/33 23/16/33 33/76/33 34/77/33
f 32/48/34 21/47/34 41/63/34 48/62/34
f 53/40/35 50/39/35 49/42/35 54/78/35
f 54/78/36 49/42/36 51/79/36 55/80/36
f 55/81/37 51/82/37 52/83/37 56/38/37
f 5/3/38 7/24/38 49/42/38 50/39/38
f 16/35/39 15/34/39 54/78/39 55/37/39
f 8/27/40 6/12/40 52/84/40 51/85/40
f 15/34/41 13/4/41 53/40/41 54/78/41
f 6/43/42 14/7/42 56/38/42 52/83/42
o Cube
v -3.455048 14.852713 1.641114
v -3.455048 15.127127 1.641114
v -3.455048 14.871712 -5.254025
v -3.455048 15.108128 -5.114701
v 3.370428 14.852713 1.641114
v 3.370428 15.127127 1.641114
v 3.370428 14.871712 -5.254025
v 3.370428 15.108128 -5.114701
v -3.455048 16.032564 -5.688898
v -3.455048 16.036455 -5.963285
v 3.370428 16.036455 -5.963285
v 3.370428 16.032564 -5.688898
v -3.455048 22.485325 -5.601173
v -3.455048 21.633053 -5.875560
v 3.370428 21.633053 -5.875560
v 3.370428 22.485325 -5.601173
v -3.455048 28.702362 -6.474890
v -3.455048 28.384804 -6.749278
v 3.370428 28.384804 -6.749278
v 3.370428 28.702362 -6.474890
v -3.455048 34.565380 -6.387167
v -3.455048 34.569271 -6.661554
v 3.370428 34.569271 -6.661554
v 3.370428 34.565380 -6.387167
vt 0.018015 0.001497
vt 1.011246 0.001497
vt 0.993690 0.013542
vt -0.022951 0.016535
vt 0.375000 0.250000
vt 0.625000 0.250000
vt 0.625000 0.250000
vt 0.375000 0.250000
vt 0.029719 0.500000
vt 0.999542 0.500000
vt 0.993690 0.515038
vt 0.018015 0.521025
vt 0.006310 0.752993
vt 0.987837 0.754490
vt 0.976133 0.768032
vt 0.012163 0.765038
vt 0.125000 0.500000
vt 0.375000 0.500000
vt 0.375000 0.750000
vt 0.125000 0.750000
vt 1.035645 0.265211
vt -0.010434 0.265094
vt -0.004107 0.003556
vt 1.001006 0.002177
vt 0.021782 0.265857
vt 0.984603 0.271969
vt 0.984603 0.512917
vt 0.021782 0.514288
vt 0.625000 0.500000
vt 0.375000 0.500000
vt 0.625000 0.500000
vt 0.125000 0.500000
vt -0.004581 0.250128
vt 0.988827 0.250246
vt 0.984603 0.283942
vt -0.001627 0.282319
vt 0.625000 0.500000
vt 0.375000 0.500000
vt 0.375000 0.500000
vt 0.625000 0.500000
vt 0.625000 0.250000
vt 0.375000 0.250000
vt 0.125000 0.500000
vt 0.006390 0.753380
vt 0.986768 0.757995
vt 0.986768 0.997446
vt 0.006390 0.998817
vt 0.125000 0.500000
vt 0.625000 0.250000
vt 0.375000 0.250000
vt 0.375000 0.250000
vt 0.625000 0.250000
vt 0.625000 0.500000
vt 0.375000 0.500000
vt 0.125000 0.500000
vn -1.0000 -0.0000 0.0000
vn 1.0000 0.0000 0.0000
vn 0.0000 0.0000 1.0000
vn 0.0000 -1.0000 -0.0028
vn 0.0000 1.0000 -0.0028
vn 0.0000 -0.0136 0.9999
vn 0.0000 -0.5201 -0.8541
vn 0.0000 0.5276 0.8495
vn 0.0000 0.0157 -0.9999
vn 0.0000 -0.0150 0.9999
vn 0.0000 -0.1283 -0.9917
vn 0.0000 0.1392 0.9903
vn 0.0000 0.9999 0.0142
vn 0.0000 0.0142 -0.9999
usemtl QUILT
s off
f 57/86/43 58/87/43 60/88/43 59/89/43
f 59/90/43 60/91/43 65/92/43 66/93/43
f 63/94/44 64/95/44 62/96/44 61/97/44
f 61/98/45 62/99/45 58/100/45 57/101/45
f 59/102/46 63/103/46 61/104/46 57/105/46
f 64/106/47 60/107/47 58/108/47 62/109/47
f 65/110/48 68/111/48 72/112/48 69/113/48
f 64/114/44 63/103/44 67/115/44 68/116/44
f 63/103/49 59/102/49 66/117/49 67/115/49
f 60/118/50 64/119/50 68/120/50 65/121/50
f 72/122/44 71/123/44 75/124/44 76/125/44
f 66/93/43 65/92/43 69/126/43 70/127/43
f 68/116/44 67/115/44 71/123/44 72/122/44
f 67/115/51 66/117/51 70/128/51 71/123/51
f 73/129/52 76/130/52 80/131/52 77/132/52
f 71/123/53 70/128/53 74/133/53 75/124/53
f 69/113/54 72/112/54 76/130/54 73/129/54
f 70/127/43 69/126/43 73/134/43 74/135/43
f 78/136/55 77/137/55 80/138/55 79/139/55
f 74/135/43 73/134/43 77/137/43 78/136/43
f 76/125/44 75/124/44 79/139/44 80/138/44
f 75/124/56 74/133/56 78/140/56 79/139/56
o table_Cube.001
v -6.845732 13.579362 6.341364
v -6.845732 13.579362 -6.341364
v 6.845732 13.579362 6.341364
v 6.845732 13.579362 -6.341364
v -5.914230 14.778888 5.478492
v -6.845732 14.099695 6.341364
v -6.379981 14.767955 5.909928
v -6.720934 14.362555 6.225761
v -5.914230 14.778888 -5.478492
v -6.845732 14.099695 -6.341364
v -6.379981 14.767955 -5.909928
v -6.720934 14.362555 -6.225761
v 5.914230 14.778888 5.478492
v 6.845732 14.099695 6.341364
v 6.379981 14.767955 5.909928
v 6.720934 14.362555 6.225761
v 5.914230 14.778888 -5.478492
v 6.845732 14.099695 -6.341364
v 6.379981 14.767955 -5.909928
v 6.720934 14.362555 -6.225761
v -6.845732 13.579362 -5.133562
v 6.845732 13.579362 -5.102089
v -6.845732 13.579362 5.095645
v 6.845732 13.579362 5.125669
v 5.420446 13.579362 -6.341364
v 5.423138 13.579362 -5.105359
v 5.445423 13.579362 5.122598
v 5.448081 13.579362 6.341364
v -5.610090 13.579362 -6.341364
v -5.529305 13.579362 6.341364
v -5.537223 13.579362 5.098515
v -5.602377 13.579362 -5.130704
v -6.672100 0.041627 5.260636
v -6.672100 0.041627 6.176753
v -5.866462 0.041627 -6.089686
v -6.587754 0.041627 -6.089686
v 6.568117 0.041627 -5.344019
v 6.568117 0.041627 -6.100071
v 5.673330 0.041627 6.145005
v 6.620054 0.041627 6.145005
v -6.587754 0.041627 -5.384646
v 5.700227 0.041627 -5.346014
v 6.620054 0.041627 5.321532
v 5.671529 0.041627 5.319452
v 5.698585 0.041627 -6.100071
v -5.703983 0.041627 6.176753
v -5.709807 0.041627 5.262746
v -5.861960 0.041627 -5.382977
vt 0.642009 0.517009
vt 0.857991 0.517009
vt 0.857991 0.732991
vt 0.642009 0.732991
vt 0.375000 0.500000
vt 0.607991 0.500000
vt 0.607991 0.750000
vt 0.375000 0.750000
vt 0.375000 0.726036
vt 0.375000 0.524428
vt 0.375000 0.000000
vt 0.607991 0.000000
vt 0.607991 0.250000
vt 0.375000 0.250000
vt 0.375000 0.226192
vt 0.375000 0.024555
vt 0.148893 0.725501
vt 0.149037 0.750000
vt 0.149037 0.750000
vt 0.148893 0.725501
vt 0.375000 0.473975
vt 0.375000 0.272562
vt 0.866496 0.508504
vt 0.866496 0.741496
vt 0.875000 0.502279
vt 0.875000 0.747721
vt 0.616496 0.002279
vt 0.616496 0.247721
vt 0.633504 0.508504
vt 0.627279 0.500000
vt 0.872721 0.500000
vt 0.616496 0.252279
vt 0.616496 0.497721
vt 0.633504 0.741496
vt 0.616496 0.747721
vt 0.616496 0.502279
vt 0.872721 0.750000
vt 0.627279 0.750000
vt 0.616496 0.752279
vt 0.616496 0.997721
vt 0.607991 1.000000
vt 0.375000 1.000000
vt 0.375000 0.975963
vt 0.375000 0.775520
vt 0.125000 0.523808
vt 0.147703 0.523864
vt 0.125000 0.725445
vt 0.375000 0.524428
vt 0.375000 0.500000
vt 0.349431 0.725976
vt 0.349024 0.524364
vt 0.349024 0.524364
vt 0.375000 0.272562
vt 0.375000 0.250000
vt 0.349479 0.750000
vt 0.147562 0.500000
vt 0.348975 0.500000
vt 0.125000 0.500000
vt 0.147562 0.500000
vt 0.147703 0.523864
vt 0.125000 0.523808
vt 0.125000 0.725445
vt 0.125000 0.750000
vt 0.349479 0.750000
vt 0.349431 0.725976
vt 0.375000 0.726036
vt 0.375000 0.750000
vt 0.348975 0.500000
vt 0.375000 0.775520
vt 0.375000 0.473975
vt 0.375000 1.000000
vt 0.375000 0.975963
vt 0.375000 0.226192
vt 0.375000 0.024555
vt 0.375000 0.000000
vn 0.0000 1.0000 0.0000
vn 1.0000 0.0000 0.0000
vn -1.0000 -0.0000 0.0000
vn 0.9999 -0.0128 -0.0064
vn 0.0000 0.0000 -1.0000
vn -0.0235 0.9997 0.0000
vn -0.7653 0.6437 0.0000
vn -0.9034 0.4289 0.0000
vn 0.0000 0.9997 -0.0253
vn 0.0000 0.6146 -0.7889
vn 0.0000 0.4026 -0.9154
vn 0.0235 0.9997 0.0000
vn 0.7653 0.6437 0.0000
vn 0.9034 0.4289 0.0000
vn 0.0000 0.9997 0.0253
vn 0.0000 0.6146 0.7889
vn 0.0000 0.4026 0.9154
vn 0.0000 0.0000 1.0000
vn 0.0000 -1.0000 0.0000
vn 0.9998 -0.0205 0.0000
vn -0.0023 -0.0178 0.9998
vn 0.0000 -0.0186 -0.9998
vn -0.9999 -0.0167 0.0022
vn 0.0000 -0.0145 0.9999
vn 0.9999 -0.0167 0.0000
vn 0.9998 -0.0191 -0.0064
vn -0.9998 -0.0205 0.0022
vn 0.0022 -0.0145 -0.9999
vn 0.0000 -0.0178 -0.9998
vn 0.0000 -0.0122 0.9999
vn -0.9998 -0.0191 0.0000
vn 0.0022 -0.0122 -0.9999
vn -0.9999 -0.0128 0.0000
vn -0.0023 -0.0186 0.9998
usemtl TABLE
s off
f 97/141/57 89/142/57 85/143/57 93/144/57
f 84/145/58 98/146/58 94/147/58 83/148/58 104/149/58 102/150/58
f 81/151/59 86/152/59 90/153/59 82/154/59 101/155/59 103/156/59
f 111/157/60 110/158/60 126/159/60 127/160/60
f 82/154/61 90/153/61 98/146/61 84/145/61 105/161/61 109/162/61
f 85/143/62 89/142/62 91/163/62 87/164/62
f 87/164/63 91/163/63 92/165/63 88/166/63
f 88/167/64 92/168/64 90/153/64 86/152/64
f 89/142/65 97/141/65 99/169/65 91/163/65
f 91/163/66 99/169/66 100/170/66 92/171/66
f 92/172/67 100/173/67 98/146/67 90/153/67
f 97/141/68 93/144/68 95/174/68 99/169/68
f 99/169/69 95/174/69 96/175/69 100/176/69
f 100/176/70 96/175/70 94/147/70 98/146/70
f 93/144/71 85/143/71 87/164/71 95/174/71
f 95/174/72 87/164/72 88/177/72 96/178/72
f 96/179/73 88/180/73 86/181/73 94/147/73
f 83/148/74 94/147/74 86/181/74 81/182/74 110/183/74 108/184/74
f 101/185/75 112/186/75 111/157/75 103/187/75
f 84/145/76 102/150/76 117/188/76 118/189/76
f 107/190/75 106/191/75 102/150/75 104/149/75
f 102/150/77 106/191/77 122/192/77 117/188/77
f 82/154/78 109/162/78 115/193/78 116/194/78
f 111/157/75 112/186/75 106/191/75 107/190/75
f 110/158/75 111/157/75 107/190/75 108/195/75
f 112/186/75 109/196/75 105/197/75 106/191/75
f 116/198/75 115/199/75 128/200/75 121/201/75
f 113/202/75 127/160/75 126/159/75 114/203/75
f 119/204/75 124/205/75 123/206/75 120/207/75
f 122/192/75 125/208/75 118/189/75 117/188/75
f 108/195/79 107/190/79 124/205/79 119/204/79
f 83/148/80 108/184/80 119/209/80 120/207/80
f 104/149/81 83/148/81 120/207/81 123/206/81
f 109/196/82 112/186/82 128/200/82 115/199/82
f 106/191/83 105/197/83 125/208/83 122/192/83
f 107/190/84 104/149/84 123/206/84 124/205/84
f 105/161/85 84/145/85 118/189/85 125/210/85
f 110/183/86 81/182/86 114/211/86 126/212/86
f 101/155/87 82/154/87 116/194/87 121/213/87
f 103/187/88 111/157/88 127/160/88 113/202/88
f 81/151/89 103/156/89 113/214/89 114/215/89
f 112/186/90 101/185/90 121/201/90 128/200/90
o wall_Cube.002
v -13.262086 0.079760 -6.992041
v -13.262086 36.289215 -6.992041
v -13.262086 0.079760 -8.030637
v -13.262086 36.289215 -8.030637
v 13.262086 0.079760 -6.992041
v 13.262086 36.289215 -6.992041
v 13.262086 0.079760 -8.030637
v 13.262086 36.289215 -8.030637
vt 0.375000 0.000000
vt 0.625000 0.000000
vt 0.625000 0.250000
vt 0.375000 0.250000
vt 0.625000 0.500000
vt 0.375000 0.500000
vt 0.625000 0.750000
vt 0.375000 0.750000
vt 0.625000 1.000000
vt 0.375000 1.000000
vt 0.125000 0.500000
vt 0.125000 0.750000
vt 0.875000 0.500000
vt 0.875000 0.750000
vn -1.0000 0.0000 0.0000
vn 0.0000 0.0000 -1.0000
vn 1.0000 0.0000 0.0000
vn 0.0000 0.0000 1.0000
vn 0.0000 -1.0000 0.0000
vn 0.0000 1.0000 0.0000
usemtl WALL
s off
f 129/216/91 130/217/91 132/218/91 131/219/91
f 131/219/92 132/218/92 136/220/92 135/221/92
f 135/221/93 136/220/93 134/222/93 133/223/93
f 133/223/94 134/222/94 130/224/94 129/225/94
f 131/226/95 135/221/95 133/223/95 129/227/95
f 136/220/96 132/228/96 130/229/96 134/222/96
